<svg width="657.9px" height="122px" xmlns="http://www.w3.org/2000/svg" viewBox="-78.94687499999998 14 657.89375 122" style="background: rgba(0, 0, 0, 0)" preserveAspectRatio="xMidYMid"><defs><linearGradient id="editing-gradow-gradient" x1="0" x2="1" y1="0.5" y2="0.5" gradientUnits="objectBoundingBox"><stop offset="0" stop-color="#393239"></stop><stop offset="1" stop-color="#e70ae7"></stop></linearGradient><filter id="editing-gradow-filter" x="-100%" y="-100%" width="300%" height="300%"><feFlood flood-color="#fffcd9" result="flood"></feFlood><feComposite operator="in" in2="SourceAlpha" in="flood" result="shadow"></feComposite><feOffset dx="-4" dy="-4" in="SourceGraphic" result="offset-1"></feOffset><feOffset dx="4" dy="4" in="shadow" result="offset-2"></feOffset><feMerge><feMergeNode in="offset-2"></feMergeNode><feMergeNode in="offset-1"></feMergeNode></feMerge></filter></defs><g filter="url(#editing-gradow-filter)"><g transform="matrix(1.3,0,0,2.1,-45.1,260.4)"><path d="M 7.2 -73.6 L -6.8 -73.6 L 1.3 -115.8 L 15.4 -115.8 L 7.2 -73.6 Z M 62.9 -72.3 L 62.9 -72.3 L 62.9 -72.3 Q 55.2 -72.3 55.2 -78.3 L 55.2 -78.3 L 55.2 -78.3 Q 55.2 -80.9 56.3 -86 L 56.3 -86 L 56.3 -86 Q 57.4 -91.1 57.8 -93.2 L 57.8 -93.2 L 57.8 -93.2 Q 58.7 -97.8 58.7 -99.3 L 58.7 -99.3 L 58.7 -99.3 Q 58.7 -102.6 56.3 -102.6 L 56.3 -102.6 L 56.3 -102.6 Q 54.7 -102.6 53.1 -100.4 L 53.1 -100.4 L 53.1 -100.4 Q 51.6 -98.2 50.9 -93.7 L 50.9 -93.7 L 46.9 -73.6 L 34.4 -72.3 L 37.9 -89.7 L 37.9 -89.7 Q 38.5 -92.6 39 -95.9 L 39 -95.9 L 39 -95.9 Q 39.5 -99.1 39.5 -99.6 L 39.5 -99.6 L 39.5 -99.6 Q 39.5 -102.6 37.3 -102.6 L 37.3 -102.6 L 37.3 -102.6 Q 35.8 -102.6 34.2 -100.4 L 34.2 -100.4 L 34.2 -100.4 Q 32.6 -98.2 31.7 -93.7 L 31.7 -93.7 L 27.8 -73.6 L 15.2 -72.3 L 22 -106.2 L 32.4 -107.5 L 31.3 -101 L 31.3 -101 Q 33 -104.5 36 -106 L 36 -106 L 36 -106 Q 39.1 -107.5 43.9 -107.5 L 43.9 -107.5 L 43.9 -107.5 Q 46.7 -107.5 48.5 -106.2 L 48.5 -106.2 L 48.5 -106.2 Q 50.2 -104.8 50.8 -102.6 L 50.8 -102.6 L 50.8 -102.6 Q 51.9 -104.9 54.7 -106.2 L 54.7 -106.2 L 54.7 -106.2 Q 57.5 -107.5 60.9 -107.5 L 60.9 -107.5 L 60.9 -107.5 Q 64.3 -107.5 66 -106.8 L 66 -106.8 L 66 -106.8 Q 67.7 -106 68.7 -104.8 L 68.7 -104.8 L 68.7 -104.8 Q 70.5 -102.6 70.5 -98.5 L 70.5 -98.5 L 70.5 -98.5 Q 70.5 -94.4 68.7 -86.1 L 68.7 -86.1 L 68.7 -86.1 Q 67.8 -82 67.8 -80.5 L 67.8 -80.5 L 67.8 -80.5 Q 67.8 -79 68.7 -78.1 L 68.7 -78.1 L 68.7 -78.1 Q 69.6 -77.2 70.9 -77 L 70.9 -77 L 70.9 -77 Q 70.2 -74.9 68 -73.6 L 68 -73.6 L 68 -73.6 Q 65.8 -72.3 62.9 -72.3 Z M 78.6 -75.5 L 78.6 -75.5 L 78.6 -75.5 Q 77.1 -77.2 76.4 -79.8 L 76.4 -79.8 L 76.4 -79.8 Q 75.7 -82.4 75.7 -86.7 L 75.7 -86.7 L 75.7 -86.7 Q 75.7 -91 77.2 -94.9 L 77.2 -94.9 L 77.2 -94.9 Q 78.7 -98.8 81.3 -101.6 L 81.3 -101.6 L 81.3 -101.6 Q 86.9 -107.5 95.9 -107.5 L 95.9 -107.5 L 95.9 -107.5 Q 99.2 -107.5 101.6 -106.4 L 101.6 -106.4 L 112.5 -107.5 L 107.8 -82.5 L 107.8 -82.5 Q 107.6 -81.8 107.6 -80.4 L 107.6 -80.4 L 107.6 -80.4 Q 107.6 -79 108.5 -78.1 L 108.5 -78.1 L 108.5 -78.1 Q 109.3 -77.2 110.6 -77 L 110.6 -77 L 110.6 -77 Q 110 -74.9 107.6 -73.6 L 107.6 -73.6 L 107.6 -73.6 Q 105.3 -72.3 102.7 -72.3 L 102.7 -72.3 L 102.7 -72.3 Q 100 -72.3 98.3 -73.3 L 98.3 -73.3 L 98.3 -73.3 Q 96.5 -74.3 96 -76 L 96 -76 L 96 -76 Q 95 -74.4 92.8 -73.3 L 92.8 -73.3 L 92.8 -73.3 Q 90.6 -72.3 87.7 -72.3 L 87.7 -72.3 L 87.7 -72.3 Q 84.8 -72.3 82.4 -73.1 L 82.4 -73.1 L 82.4 -73.1 Q 80.1 -73.8 78.6 -75.5 Z M 92.1 -101.5 L 92.1 -101.5 L 92.1 -101.5 Q 91.3 -100.3 90.7 -98.4 L 90.7 -98.4 L 90.7 -98.4 Q 90.1 -96.4 89 -91.2 L 89 -91.2 L 89 -91.2 Q 87.9 -86 87.9 -82.3 L 87.9 -82.3 L 87.9 -82.3 Q 87.9 -78.6 88.5 -77.5 L 88.5 -77.5 L 88.5 -77.5 Q 89.1 -76.4 90.1 -76.4 L 90.1 -76.4 L 90.1 -76.4 Q 92.2 -76.4 93.7 -78.4 L 93.7 -78.4 L 93.7 -78.4 Q 95.2 -80.3 95.7 -83.8 L 95.7 -83.8 L 99.1 -102.5 L 99.1 -102.5 Q 97.8 -103.7 96.2 -103.7 L 96.2 -103.7 L 96.2 -103.7 Q 94.7 -103.7 93.7 -103.2 L 93.7 -103.2 L 93.7 -103.2 Q 92.8 -102.6 92.1 -101.5 Z M 120.3 -100.3 L 120.3 -100.3 L 120.3 -100.3 Q 122.4 -103.4 125.7 -105.5 L 125.7 -105.5 L 125.7 -105.5 Q 129 -107.5 133.1 -107.5 L 133.1 -107.5 L 133.1 -107.5 Q 137.1 -107.5 139 -106.2 L 139 -106.2 L 151.6 -107.5 L 147.2 -82.9 L 147.2 -82.9 Q 145 -70.4 140.2 -65.5 L 140.2 -65.5 L 140.2 -65.5 Q 135.7 -60.8 126.9 -60.8 L 126.9 -60.8 L 126.9 -60.8 Q 120.1 -60.8 116.3 -62.9 L 116.3 -62.9 L 116.3 -62.9 Q 112.5 -65 112.5 -68.5 L 112.5 -68.5 L 112.5 -68.5 Q 112.5 -71.2 114.4 -72.7 L 114.4 -72.7 L 114.4 -72.7 Q 116.4 -74.2 119.5 -74.2 L 119.5 -74.2 L 119.5 -74.2 Q 122.2 -74.2 124.2 -72.9 L 124.2 -72.9 L 124.2 -72.9 Q 125.4 -72.3 126 -71.4 L 126 -71.4 L 126 -71.4 Q 124.5 -70.1 124.5 -68 L 124.5 -68 L 124.5 -68 Q 124.5 -65.3 127.1 -65.3 L 127.1 -65.3 L 127.1 -65.3 Q 131.4 -65.3 133.8 -75.4 L 133.8 -75.4 L 133.8 -75.4 Q 134.5 -78.1 135.1 -80.9 L 135.1 -80.9 L 135.1 -80.9 Q 132.2 -77.4 125.7 -77.4 L 125.7 -77.4 L 125.7 -77.4 Q 121.2 -77.4 118.5 -79.5 L 118.5 -79.5 L 118.5 -79.5 Q 115.9 -81.7 115.9 -86.8 L 115.9 -86.8 L 115.9 -86.8 Q 115.9 -90 117 -93.6 L 117 -93.6 L 117 -93.6 Q 118.1 -97.3 120.3 -100.3 Z M 128.6 -86.6 L 128.6 -86.6 L 128.6 -86.6 Q 128.6 -82.3 130.8 -82.3 L 130.8 -82.3 L 130.8 -82.3 Q 132.4 -82.3 133.8 -84 L 133.8 -84 L 133.8 -84 Q 135 -85.3 135.4 -87.3 L 135.4 -87.3 L 138.7 -103.7 L 138.7 -103.7 Q 138.4 -103.8 138.1 -103.9 L 138.1 -103.9 L 138.1 -103.9 Q 137.4 -104.2 136.6 -104.2 L 136.6 -104.2 L 136.6 -104.2 Q 132.7 -104.2 130.4 -97.8 L 130.4 -97.8 L 130.4 -97.8 Q 128.6 -92.8 128.6 -86.6 Z M 180 -84.4 L 180 -84.4 L 180 -84.4 Q 181.6 -83.3 181.6 -80.9 L 181.6 -80.9 L 181.6 -80.9 Q 181.6 -78.5 180.4 -77 L 180.4 -77 L 180.4 -77 Q 179.1 -75.4 177.2 -74.4 L 177.2 -74.4 L 177.2 -74.4 Q 173.1 -72.3 168.6 -72.3 L 168.6 -72.3 L 168.6 -72.3 Q 164.2 -72.3 161.6 -73.3 L 161.6 -73.3 L 161.6 -73.3 Q 159 -74.2 157.3 -76 L 157.3 -76 L 157.3 -76 Q 153.9 -79.4 153.9 -85.6 L 153.9 -85.6 L 153.9 -85.6 Q 153.9 -95.3 159.2 -101.2 L 159.2 -101.2 L 159.2 -101.2 Q 164.8 -107.5 174.6 -107.5 L 174.6 -107.5 L 174.6 -107.5 Q 180.7 -107.5 183.7 -104.9 L 183.7 -104.9 L 183.7 -104.9 Q 185.9 -103 185.9 -99.9 L 185.9 -99.9 L 185.9 -99.9 Q 185.9 -88.6 166.5 -88.6 L 166.5 -88.6 L 166.5 -88.6 Q 166.2 -87 166.2 -85.6 L 166.2 -85.6 L 166.2 -85.6 Q 166.2 -82.6 167.5 -81.5 L 167.5 -81.5 L 167.5 -81.5 Q 168.8 -80.4 171.3 -80.4 L 171.3 -80.4 L 171.3 -80.4 Q 173.7 -80.4 176.3 -81.5 L 176.3 -81.5 L 176.3 -81.5 Q 178.9 -82.6 180 -84.4 Z M 166.9 -91.4 L 166.9 -91.4 L 166.9 -91.4 Q 171.5 -91.4 174.1 -94.2 L 174.1 -94.2 L 174.1 -94.2 Q 176.7 -96.9 176.7 -101.2 L 176.7 -101.2 L 176.7 -101.2 Q 176.7 -102.6 176.2 -103.4 L 176.2 -103.4 L 176.2 -103.4 Q 175.6 -104.2 174.5 -104.2 L 174.5 -104.2 L 174.5 -104.2 Q 173.4 -104.2 172.5 -103.8 L 172.5 -103.8 L 172.5 -103.8 Q 171.6 -103.4 170.6 -102 L 170.6 -102 L 170.6 -102 Q 168.3 -98.8 166.9 -91.4 Z M 207.2 -96 L 207.2 -96 L 207.2 -96 Q 208.1 -98.4 208.1 -100.5 L 208.1 -100.5 L 208.1 -100.5 Q 208.1 -104.2 205.1 -104.2 L 205.1 -104.2 L 205.1 -104.2 Q 203.5 -104.2 202.1 -102.8 L 202.1 -102.8 L 202.1 -102.8 Q 200.8 -101.4 200.8 -99.6 L 200.8 -99.6 L 200.8 -99.6 Q 200.8 -98.3 201.9 -97.3 L 201.9 -97.3 L 201.9 -97.3 Q 203.3 -95.9 207.1 -93.6 L 207.1 -93.6 L 207.1 -93.6 Q 210.9 -91.2 212.3 -89.4 L 212.3 -89.4 L 212.3 -89.4 Q 213.8 -87.5 213.8 -84.9 L 213.8 -84.9 L 213.8 -84.9 Q 213.8 -82.3 212.5 -79.9 L 212.5 -79.9 L 212.5 -79.9 Q 211.3 -77.6 209 -75.9 L 209 -75.9 L 209 -75.9 Q 204.2 -72.3 196.5 -72.3 L 196.5 -72.3 L 196.5 -72.3 Q 192.4 -72.3 189.2 -74.5 L 189.2 -74.5 L 189.2 -74.5 Q 186 -76.6 186 -79.1 L 186 -79.1 L 186 -79.1 Q 186 -81.6 187.8 -83.1 L 187.8 -83.1 L 187.8 -83.1 Q 189.6 -84.5 192.3 -84.5 L 192.3 -84.5 L 192.3 -84.5 Q 195 -84.5 196.7 -83.5 L 196.7 -83.5 L 196.7 -83.5 Q 195.8 -81.4 195.8 -80 L 195.8 -80 L 195.8 -80 Q 195.8 -75.8 199.4 -75.8 L 199.4 -75.8 L 199.4 -75.8 Q 201 -75.8 202 -76.7 L 202 -76.7 L 202 -76.7 Q 203 -77.7 203 -79.3 L 203 -79.3 L 203 -79.3 Q 203 -82.6 197.5 -86.1 L 197.5 -86.1 L 197.5 -86.1 Q 193 -89 192 -90.2 L 192 -90.2 L 192 -90.2 Q 190.3 -92.2 190.3 -94.8 L 190.3 -94.8 L 190.3 -94.8 Q 190.3 -97.3 191.5 -99.8 L 191.5 -99.8 L 191.5 -99.8 Q 192.7 -102.2 194.9 -103.9 L 194.9 -103.9 L 194.9 -103.9 Q 199.6 -107.5 207.7 -107.5 L 207.7 -107.5 L 207.7 -107.5 Q 211.9 -107.5 214.4 -105.8 L 214.4 -105.8 L 214.4 -105.8 Q 216.8 -104.2 216.8 -101.4 L 216.8 -101.4 L 216.8 -101.4 Q 216.8 -98.5 215.1 -96.9 L 215.1 -96.9 L 215.1 -96.9 Q 213.4 -95.3 210.4 -95.3 L 210.4 -95.3 L 210.4 -95.3 Q 208.3 -95.3 207.2 -96 Z M 258.3 -94.2 L 271.2 -95.3 L 271.2 -95.3 Q 266.6 -85.2 266.6 -73.5 L 266.6 -73.5 L 266.6 -73.5 Q 264.9 -72.3 262.4 -72.3 L 262.4 -72.3 L 262.4 -72.3 Q 259.8 -72.3 258.2 -73.5 L 258.2 -73.5 L 258.2 -73.5 Q 256.6 -74.7 256.3 -75.9 L 256.3 -75.9 L 256.3 -75.9 Q 254.7 -74.2 252.1 -73.3 L 252.1 -73.3 L 252.1 -73.3 Q 249.5 -72.3 246.8 -72.3 L 246.8 -72.3 L 246.8 -72.3 Q 244 -72.3 241.6 -73.2 L 241.6 -73.2 L 241.6 -73.2 Q 239.2 -74.1 237.4 -76.1 L 237.4 -76.1 L 237.4 -76.1 Q 233.3 -80.4 233.3 -88.7 L 233.3 -88.7 L 233.3 -88.7 Q 233.3 -101.5 240.1 -109.2 L 240.1 -109.2 L 240.1 -109.2 Q 247.2 -117.1 259.7 -117.1 L 259.7 -117.1 L 259.7 -117.1 Q 268.3 -117.1 271.4 -112.6 L 271.4 -112.6 L 271.4 -112.6 Q 272.3 -111.2 272.3 -109.5 L 272.3 -109.5 L 272.3 -109.5 Q 272.3 -107.8 271.6 -106.4 L 271.6 -106.4 L 271.6 -106.4 Q 270.9 -104.9 269.7 -103.8 L 269.7 -103.8 L 269.7 -103.8 Q 266.9 -101.2 263.6 -101.2 L 263.6 -101.2 L 263.6 -101.2 Q 262.2 -101.2 260.9 -101.7 L 260.9 -101.7 L 260.9 -101.7 Q 261.2 -103.6 261.2 -105.8 L 261.2 -105.8 L 261.2 -105.8 Q 261.2 -108.1 261 -109.1 L 261 -109.1 L 261 -109.1 Q 260.9 -110.1 260.5 -111 L 260.5 -111 L 260.5 -111 Q 259.7 -112.7 257.8 -112.7 L 257.8 -112.7 L 257.8 -112.7 Q 256 -112.7 254 -110.7 L 254 -110.7 L 254 -110.7 Q 252 -108.8 250.4 -105.6 L 250.4 -105.6 L 250.4 -105.6 Q 246.9 -98.4 246.9 -89.8 L 246.9 -89.8 L 246.9 -89.8 Q 246.9 -85.8 248.4 -83 L 248.4 -83 L 248.4 -83 Q 250.1 -79.9 253 -79.9 L 253 -79.9 L 253 -79.9 Q 254 -79.9 254.9 -80.4 L 254.9 -80.4 L 254.9 -80.4 Q 255.9 -80.9 256.3 -81.3 L 256.3 -81.3 L 258.3 -94.2 Z M 300.3 -84.4 L 300.3 -84.4 L 300.3 -84.4 Q 301.9 -83.3 301.9 -80.9 L 301.9 -80.9 L 301.9 -80.9 Q 301.9 -78.5 300.7 -77 L 300.7 -77 L 300.7 -77 Q 299.5 -75.4 297.5 -74.4 L 297.5 -74.4 L 297.5 -74.4 Q 293.4 -72.3 289 -72.3 L 289 -72.3 L 289 -72.3 Q 284.5 -72.3 282 -73.3 L 282 -73.3 L 282 -73.3 Q 279.4 -74.2 277.6 -76 L 277.6 -76 L 277.6 -76 Q 274.2 -79.4 274.2 -85.6 L 274.2 -85.6 L 274.2 -85.6 Q 274.2 -95.3 279.5 -101.2 L 279.5 -101.2 L 279.5 -101.2 Q 285.1 -107.5 294.9 -107.5 L 294.9 -107.5 L 294.9 -107.5 Q 301 -107.5 304 -104.9 L 304 -104.9 L 304 -104.9 Q 306.2 -103 306.2 -99.9 L 306.2 -99.9 L 306.2 -99.9 Q 306.2 -88.6 286.8 -88.6 L 286.8 -88.6 L 286.8 -88.6 Q 286.5 -87 286.5 -85.6 L 286.5 -85.6 L 286.5 -85.6 Q 286.5 -82.6 287.8 -81.5 L 287.8 -81.5 L 287.8 -81.5 Q 289.2 -80.4 291.6 -80.4 L 291.6 -80.4 L 291.6 -80.4 Q 294 -80.4 296.6 -81.5 L 296.6 -81.5 L 296.6 -81.5 Q 299.2 -82.6 300.3 -84.4 Z M 287.2 -91.4 L 287.2 -91.4 L 287.2 -91.4 Q 291.8 -91.4 294.4 -94.2 L 294.4 -94.2 L 294.4 -94.2 Q 297 -96.9 297 -101.2 L 297 -101.2 L 297 -101.2 Q 297 -102.6 296.5 -103.4 L 296.5 -103.4 L 296.5 -103.4 Q 295.9 -104.2 294.9 -104.2 L 294.9 -104.2 L 294.9 -104.2 Q 293.8 -104.2 292.8 -103.8 L 292.8 -103.8 L 292.8 -103.8 Q 291.9 -103.4 290.9 -102 L 290.9 -102 L 290.9 -102 Q 288.6 -98.8 287.2 -91.4 Z M 323.7 -77.1 L 323.7 -77.1 L 323.7 -77.1 Q 321.7 -72.3 315.4 -72.3 L 315.4 -72.3 L 315.4 -72.3 Q 312.2 -72.3 310.1 -74.5 L 310.1 -74.5 L 310.1 -74.5 Q 308.5 -76.4 308.5 -78.5 L 308.5 -78.5 L 308.5 -78.5 Q 308.5 -83.3 310.7 -93.8 L 310.7 -93.8 L 315.4 -118.4 L 328.4 -119.7 L 322.2 -87.3 L 322.2 -87.3 Q 321.1 -82.5 321.1 -80.9 L 321.1 -80.9 L 321.1 -80.9 Q 321.1 -77.2 323.7 -77.1 Z M 344.5 -77.1 L 344.5 -77.1 L 344.5 -77.1 Q 342.5 -72.3 336.1 -72.3 L 336.1 -72.3 L 336.1 -72.3 Q 332.9 -72.3 330.9 -74.5 L 330.9 -74.5 L 330.9 -74.5 Q 329.2 -76.4 329.2 -78.5 L 329.2 -78.5 L 329.2 -78.5 Q 329.2 -83.3 331.5 -93.8 L 331.5 -93.8 L 336.1 -118.4 L 349.1 -119.7 L 342.9 -87.3 L 342.9 -87.3 Q 341.8 -82.5 341.8 -80.9 L 341.8 -80.9 L 341.8 -80.9 Q 341.8 -77.2 344.5 -77.1 Z M 352.7 -75.5 L 352.7 -75.5 L 352.7 -75.5 Q 351.2 -77.2 350.5 -79.8 L 350.5 -79.8 L 350.5 -79.8 Q 349.8 -82.4 349.8 -86.7 L 349.8 -86.7 L 349.8 -86.7 Q 349.8 -91 351.3 -94.9 L 351.3 -94.9 L 351.3 -94.9 Q 352.8 -98.8 355.5 -101.6 L 355.5 -101.6 L 355.5 -101.6 Q 361 -107.5 370.1 -107.5 L 370.1 -107.5 L 370.1 -107.5 Q 373.3 -107.5 375.7 -106.4 L 375.7 -106.4 L 386.6 -107.5 L 381.9 -82.5 L 381.9 -82.5 Q 381.7 -81.8 381.7 -80.4 L 381.7 -80.4 L 381.7 -80.4 Q 381.7 -79 382.6 -78.1 L 382.6 -78.1 L 382.6 -78.1 Q 383.4 -77.2 384.7 -77 L 384.7 -77 L 384.7 -77 Q 384.1 -74.9 381.7 -73.6 L 381.7 -73.6 L 381.7 -73.6 Q 379.4 -72.3 376.8 -72.3 L 376.8 -72.3 L 376.8 -72.3 Q 374.1 -72.3 372.4 -73.3 L 372.4 -73.3 L 372.4 -73.3 Q 370.6 -74.3 370.1 -76 L 370.1 -76 L 370.1 -76 Q 369.1 -74.4 366.9 -73.3 L 366.9 -73.3 L 366.9 -73.3 Q 364.7 -72.3 361.8 -72.3 L 361.8 -72.3 L 361.8 -72.3 Q 358.9 -72.3 356.5 -73.1 L 356.5 -73.1 L 356.5 -73.1 Q 354.2 -73.8 352.7 -75.5 Z M 366.2 -101.5 L 366.2 -101.5 L 366.2 -101.5 Q 365.4 -100.3 364.8 -98.4 L 364.8 -98.4 L 364.8 -98.4 Q 364.2 -96.4 363.1 -91.2 L 363.1 -91.2 L 363.1 -91.2 Q 362.1 -86 362.1 -82.3 L 362.1 -82.3 L 362.1 -82.3 Q 362.1 -78.6 362.6 -77.5 L 362.6 -77.5 L 362.6 -77.5 Q 363.2 -76.4 364.2 -76.4 L 364.2 -76.4 L 364.2 -76.4 Q 366.3 -76.4 367.8 -78.4 L 367.8 -78.4 L 367.8 -78.4 Q 369.3 -80.3 369.9 -83.8 L 369.9 -83.8 L 373.3 -102.5 L 373.3 -102.5 Q 371.9 -103.7 370.3 -103.7 L 370.3 -103.7 L 370.3 -103.7 Q 368.8 -103.7 367.8 -103.2 L 367.8 -103.2 L 367.8 -103.2 Q 366.9 -102.6 366.2 -101.5 Z M 410.1 -91.6 L 410.1 -91.6 L 410.1 -91.6 Q 412.4 -95.7 412.4 -99.8 L 412.4 -99.8 L 412.4 -99.8 Q 412.4 -102.6 410.4 -102.6 L 410.4 -102.6 L 410.4 -102.6 Q 408.9 -102.6 407.3 -100 L 407.3 -100 L 407.3 -100 Q 405.6 -97.3 405.1 -93.9 L 405.1 -93.9 L 401.8 -73.6 L 388.5 -72.3 L 395.1 -106.2 L 405.6 -107.5 L 404.5 -101 L 404.5 -101 Q 407.6 -107.5 414.7 -107.5 L 414.7 -107.5 L 414.7 -107.5 Q 418.4 -107.5 420.4 -105.6 L 420.4 -105.6 L 420.4 -105.6 Q 422.4 -103.7 422.4 -99.7 L 422.4 -99.7 L 422.4 -99.7 Q 422.4 -95.8 419.8 -93.3 L 419.8 -93.3 L 419.8 -93.3 Q 417.2 -90.8 412.8 -90.8 L 412.8 -90.8 L 412.8 -90.8 Q 410.9 -90.8 410.1 -91.6 Z M 443.8 -80.8 L 443.8 -80.8 L 443.8 -80.8 Q 440.5 -77.4 434.4 -77.4 L 434.4 -77.4 L 434.4 -77.4 Q 426.8 -77.4 425.2 -82.9 L 425.2 -82.9 L 425.2 -82.9 Q 424.6 -84.6 424.6 -86.4 L 424.6 -86.4 L 424.6 -86.4 Q 424.6 -88.3 425 -90.2 L 425 -90.2 L 428 -106.2 L 441 -107.5 L 437.5 -88.9 L 437.5 -88.9 Q 437.4 -88 437.2 -87.2 L 437.2 -87.2 L 437.2 -87.2 Q 437 -86.3 437 -85.3 L 437 -85.3 L 437 -85.3 Q 437 -84.4 437.3 -83.8 L 437.3 -83.8 L 437.3 -83.8 Q 437.6 -83.2 438.1 -82.8 L 438.1 -82.8 L 438.1 -82.8 Q 438.9 -82.3 440.2 -82.3 L 440.2 -82.3 L 440.2 -82.3 Q 441.6 -82.3 442.8 -84 L 442.8 -84 L 442.8 -84 Q 444 -85.6 444.5 -88.5 L 444.5 -88.5 L 448.1 -106.2 L 460.7 -107.5 L 455.9 -82.4 L 455.9 -82.4 Q 453.5 -70.1 448.6 -65.2 L 448.6 -65.2 L 448.6 -65.2 Q 446.1 -62.7 442.9 -61.7 L 442.9 -61.7 L 442.9 -61.7 Q 439.7 -60.7 435.5 -60.7 L 435.5 -60.7 L 435.5 -60.7 Q 428.8 -60.7 425 -62.8 L 425 -62.8 L 425 -62.8 Q 421.1 -64.9 421.1 -68.5 L 421.1 -68.5 L 421.1 -68.5 Q 421.1 -71.1 423.1 -72.6 L 423.1 -72.6 L 423.1 -72.6 Q 425.1 -74.1 428.2 -74.1 L 428.2 -74.1 L 428.2 -74.1 Q 430.9 -74.1 432.9 -72.9 L 432.9 -72.9 L 432.9 -72.9 Q 434.1 -72.2 434.7 -71.3 L 434.7 -71.3 L 434.7 -71.3 Q 433.2 -70.1 433.2 -68 L 433.2 -68 L 433.2 -68 Q 433.2 -65.1 435.8 -65.1 L 435.8 -65.1 L 435.8 -65.1 Q 440 -65.1 442.4 -74.9 L 442.4 -74.9 L 442.4 -74.9 Q 443.1 -77.7 443.8 -80.8 Z" fill="url(#editing-gradow-gradient)"></path></g></g><style>text {
  font-size: 64px;
  font-family: Arial Black;
  dominant-baseline: central;
  text-anchor: middle;
}</style></svg>